{
	"asset":{
		"generator":"Khronos glTF Blender I/O v4.4.56",
		"version":"2.0"
	},
	"extensionsUsed":[
		"KHR_materials_specular"
	],
	"scene":0,
	"scenes":[
		{
			"name":"Scene",
			"nodes":[
				0
			]
		}
	],
	"nodes":[
		{
			"mesh":0,
			"name":"Dragon_Spacecraft_001",
			"scale":[
				0.009999999776482582,
				0.009999999776482582,
				0.009999999776482582
			]
		}
	],
	"materials":[
		{
			"doubleSided":true,
			"extensions":{
				"KHR_materials_specular":{
					"specularColorFactor":[
						2.0,
						2.0,
						2.0
					]
				}
			},
			"name":"Dragon_Spacecraft",
			"normalTexture":{
				"index":0
			},
			"pbrMetallicRoughness":{
				"baseColorTexture":{
					"index":1
				},
				"metallicRoughnessTexture":{
					"index":2
				}
			}
		}
	],
	"meshes":[
		{
			"name":"Mesh",
			"primitives":[
				{
					"attributes":{
						"POSITION":0,
						"NORMAL":1,
						"TEXCOORD_0":2,
						"TANGENT":3
					},
					"indices":4,
					"material":0
				}
			]
		}
	],
	"textures":[
		{
			"sampler":0,
			"source":0
		},
		{
			"sampler":0,
			"source":1
		},
		{
			"sampler":0,
			"source":2
		}
	],
	"images":[
		{
			"mimeType":"image/png",
			"name":"Dragon_Spacecraft_04_Normal_OpenGL",
			"uri":"Dragon_Spacecraft_04_Normal_OpenGL.png"
		},
		{
			"mimeType":"image/png",
			"name":"Dragon_Spacecraft_01_Albedo",
			"uri":"Dragon_Spacecraft_01_Albedo.png"
		},
		{
			"mimeType":"image/png",
			"name":"Dragon_Spacecraft_02_ORM",
			"uri":"Dragon_Spacecraft_02_ORM.png"
		}
	],
	"accessors":[
		{
			"bufferView":0,
			"componentType":5126,
			"count":7042,
			"max":[
				1758.0711669921875,
				403.9664306640625,
				599.537109375
			],
			"min":[
				-1758.0977783203125,
				-403.9335021972656,
				-599.53662109375
			],
			"type":"VEC3"
		},
		{
			"bufferView":1,
			"componentType":5126,
			"count":7042,
			"type":"VEC3"
		},
		{
			"bufferView":2,
			"componentType":5126,
			"count":7042,
			"type":"VEC2"
		},
		{
			"bufferView":3,
			"componentType":5126,
			"count":7042,
			"type":"VEC4"
		},
		{
			"bufferView":4,
			"componentType":5123,
			"count":11472,
			"type":"SCALAR"
		}
	],
	"bufferViews":[
		{
			"buffer":0,
			"byteLength":84504,
			"byteOffset":0,
			"target":34962
		},
		{
			"buffer":0,
			"byteLength":84504,
			"byteOffset":84504,
			"target":34962
		},
		{
			"buffer":0,
			"byteLength":56336,
			"byteOffset":169008,
			"target":34962
		},
		{
			"buffer":0,
			"byteLength":112672,
			"byteOffset":225344,
			"target":34962
		},
		{
			"buffer":0,
			"byteLength":22944,
			"byteOffset":338016,
			"target":34963
		}
	],
	"samplers":[
		{
			"magFilter":9729,
			"minFilter":9987
		}
	],
	"buffers":[
		{
			"byteLength":360960,
			"uri":"Dragon_Spacecraft.bin"
		}
	]
}
